<svg width="24" height="24" viewBox="0 0 24 24" fill="none" xmlns="http://www.w3.org/2000/svg">
<g clip-path="url(#clip0_191_23706)">
<path d="M4.92119 6.8452L4.81512 6.95126L4.92119 7.05733L10.3632 12.4993L4.92119 17.9413L4.81512 18.0474L4.92119 18.1535L5.84587 19.0781L5.95193 19.1842L6.058 19.0781L11.5 13.6361L16.942 19.0781L17.0481 19.1842L17.1541 19.0781L18.0788 18.1535L18.1849 18.0474L18.0788 17.9413L12.6368 12.4993L18.0788 7.05733L18.1849 6.95126L18.0788 6.8452L17.1541 5.92052L17.0481 5.81445L16.942 5.92052L11.5 11.3625L6.058 5.92052L5.95193 5.81445L5.84587 5.92052L4.92119 6.8452Z" fill="#C1272D" stroke="#C1272D" stroke-width="0.3"/>
</g>
<defs>
<clipPath id="clip0_191_23706">
<rect width="24" height="24" fill="white"/>
</clipPath>
</defs>
</svg>
