<svg width="36" height="36" viewBox="0 0 36 36" fill="none" xmlns="http://www.w3.org/2000/svg">
<rect width="36" height="36" rx="18" fill="#EAEAF4"/>
<path d="M17.9998 18C17.0098 18 16.1998 17.19 16.1998 16.2C16.1998 15.21 17.0098 14.4 17.9998 14.4C18.9898 14.4 19.7998 15.21 19.7998 16.2C19.7998 17.19 18.9898 18 17.9998 18ZM23.3998 16.38C23.3998 13.113 21.0148 10.8 17.9998 10.8C14.9848 10.8 12.5998 13.113 12.5998 16.38C12.5998 18.486 14.3548 21.276 17.9998 24.606C21.6448 21.276 23.3998 18.486 23.3998 16.38ZM17.9998 9C21.7798 9 25.1998 11.898 25.1998 16.38C25.1998 19.368 22.7968 22.905 17.9998 27C13.2028 22.905 10.7998 19.368 10.7998 16.38C10.7998 11.898 14.2198 9 17.9998 9Z" fill="#221C43"/>
</svg>
