<svg width="41" height="41" viewBox="0 0 41 41" fill="none" xmlns="http://www.w3.org/2000/svg">
<path d="M17.7605 32.1111C17.3642 32.6714 16.9889 32.9476 16.6301 32.9476C16.391 32.9476 16.2549 32.8075 16.2116 32.5296C16.1945 32.4721 16.1945 32.254 16.1945 31.8349V24.5688H14.4076V32.3724C14.4076 33.07 14.4668 33.5404 14.5653 33.8393C14.7436 34.3393 15.141 34.5733 15.7173 34.5733C16.3745 34.5733 17.0498 34.1764 17.7599 33.361V34.4378H19.5497V24.5693H17.7605V32.1111ZM7.91309 23.0575H10.0166V34.4378H12.0051V23.0575H14.1474V21.1931H7.91309V23.0575ZM20.0901 14.4292C20.6726 14.4292 20.9517 13.968 20.9517 13.0449V8.84925C20.9517 7.92732 20.6726 7.46777 20.0901 7.46777C19.507 7.46777 19.2274 7.92732 19.2274 8.84925V13.0449C19.2279 13.9674 19.507 14.4292 20.0901 14.4292ZM24.7328 24.4486C24.0756 24.4486 23.4629 24.8085 22.8861 25.5192V21.1931H21.0974V34.4378H22.8861V33.48C23.4828 34.2197 24.0973 34.5733 24.7328 34.5733C25.4451 34.5733 25.9235 34.1986 26.1626 33.4646C26.2817 33.0461 26.3426 32.3889 26.3426 31.4761V27.5464C26.3426 26.6125 26.2817 25.9599 26.1626 25.563C25.9229 24.8233 25.4451 24.4486 24.7328 24.4486ZM24.5545 31.6162C24.5545 32.5074 24.292 32.947 23.7767 32.947C23.4828 32.947 23.1844 32.8069 22.8855 32.508V26.4923C23.1844 26.1979 23.4823 26.0579 23.7767 26.0579C24.2926 26.0579 24.5545 26.5146 24.5545 27.4046V31.6162ZM30.4278 24.4486C29.5159 24.4482 28.8022 24.7857 28.2867 25.4611C27.9063 25.9593 27.7337 26.7304 27.7337 27.7844V31.2421C27.7337 32.2899 27.9285 33.0694 28.3083 33.562C28.8248 34.2357 29.5366 34.5728 30.4728 34.5728C31.4067 34.5728 32.1395 34.2191 32.6349 33.5039C32.8536 33.1828 32.9963 32.8161 33.0523 32.4317C33.0683 32.2523 33.0905 31.8548 33.0905 31.2797V31.0177H31.2654C31.2654 31.7352 31.2432 32.1321 31.2267 32.2295C31.1248 32.7073 30.8674 32.9464 30.4278 32.9464C29.8139 32.9464 29.5155 32.4909 29.5155 31.5775V29.8282H33.0911V27.7838C33.0911 26.7292 32.9117 25.9588 32.5376 25.4605C32.037 24.7846 31.3252 24.4486 30.4278 24.4486ZM31.303 28.3402H29.5155V27.4274C29.5155 26.5147 29.8143 26.0584 30.4118 26.0584C31.0035 26.0584 31.303 26.5151 31.303 27.4274V28.3402Z" fill="#FF0000"/>
<path d="M37.0139 0H3.98611C1.79375 0 0 1.79375 0 3.98611V37.0139C0 39.2062 1.79375 41 3.98611 41H37.0139C39.2062 41 41 39.2062 41 37.0139V3.98611C41 1.79375 39.2062 0 37.0139 0ZM24.2469 5.96208H26.0481V13.3034C26.0481 13.7282 26.0481 13.9485 26.0703 14.0066C26.1102 14.2868 26.2514 14.4297 26.494 14.4297C26.855 14.4297 27.2348 14.1496 27.6351 13.5835V5.96208H29.4426V15.9331H27.6351V14.8454C26.9159 15.6705 26.2297 16.0714 25.5709 16.0714C24.9889 16.0714 24.5875 15.8351 24.407 15.3294C24.3073 15.0282 24.2469 14.5504 24.2469 13.8466V5.96208ZM17.421 9.21247C17.421 8.14704 17.6027 7.36747 17.987 6.86351C18.487 6.18246 19.1908 5.84136 20.0906 5.84136C20.996 5.84136 21.6989 6.18208 22.1992 6.86351C22.5773 7.36747 22.7601 8.14704 22.7601 9.21247V12.706C22.7601 13.7652 22.5779 14.551 22.1992 15.0516C21.6989 15.7311 20.996 16.0712 20.0906 16.072C19.1903 16.072 18.4864 15.7309 17.987 15.0516C17.6027 14.551 17.421 13.7652 17.421 12.706V9.21247ZM12.5887 2.55225L14.0117 7.80651L15.3778 2.55225H17.4039L14.994 10.5142V15.9331H12.9896V10.5142C12.8085 9.553 12.4076 8.14647 11.7653 6.2804C11.3428 5.03901 10.9026 3.79193 10.4806 2.55225H12.5887ZM34.7777 35.0311C34.4166 36.6045 33.1286 37.765 31.5797 37.9375C27.9102 38.3475 24.1968 38.3498 20.5 38.3475C16.8026 38.3498 13.0892 38.3475 9.42032 37.9375C7.87086 37.7644 6.58506 36.6039 6.22346 35.0311C5.70811 32.7897 5.70811 30.3434 5.70811 28.0372C5.70811 25.7286 5.71381 23.284 6.22972 21.0421C6.59075 19.4693 7.87713 18.3093 9.42658 18.1362C13.0955 17.7251 16.8089 17.724 20.5063 17.7251C24.2031 17.724 27.9164 17.7251 31.5859 18.1362C33.1343 18.3093 34.4218 19.4693 34.7834 21.0421C35.2987 23.2846 35.2959 25.7286 35.2959 28.0372C35.2964 30.3434 35.2936 32.7897 34.7777 35.0311Z" fill="#FF0000"/>
</svg>
